<svg width="41" height="41" viewBox="0 0 41 41" fill="none" xmlns="http://www.w3.org/2000/svg">
<path d="M22.0715 6.65419C21.05 6.32262 19.9497 6.32262 18.9282 6.65419C18.2039 6.88824 17.4573 7.42465 16.1163 8.70419L15.7575 9.04928L15.2621 9.05953C13.4069 9.10224 12.4997 9.25257 11.8215 9.59765C10.8654 10.0858 10.0881 10.8637 9.6007 11.8202C9.25562 12.4984 9.10529 13.4055 9.06258 15.2591L9.05233 15.7545L8.70895 16.1149C7.4277 17.456 6.89129 18.2025 6.65724 18.9269C6.32567 19.9484 6.32567 21.0486 6.65724 22.0702C6.89129 22.7945 7.4277 23.5411 8.70724 24.8821L9.05233 25.2409L9.06258 25.7363C9.10529 27.5915 9.25562 28.4987 9.6007 29.1769C10.0876 30.1343 10.8658 30.9125 11.8232 31.3994C12.5015 31.7462 13.4086 31.8948 15.2621 31.9375L15.7575 31.9478L16.118 32.2912C17.459 33.5724 18.2056 34.1088 18.9299 34.3429C19.9515 34.6744 21.0517 34.6744 22.0732 34.3429C22.7976 34.1088 23.5441 33.5724 24.8852 32.2929L25.2439 31.9478L25.7393 31.9375C27.5946 31.8948 28.5017 31.7445 29.1799 31.3994C30.1366 30.9115 30.9146 30.1336 31.4025 29.1769C31.7492 28.4987 31.8979 27.5915 31.9406 25.738L31.9508 25.2426L32.2942 24.8821C33.5754 23.5411 34.1119 22.7945 34.3459 22.0702C34.6775 21.0486 34.6775 19.9484 34.3459 18.9269C34.1119 18.2025 33.5755 17.456 32.2959 16.1149L31.9508 15.7562L31.9406 15.2608C31.8979 13.4055 31.7475 12.4984 31.4025 11.8202C30.9138 10.8638 30.1353 10.0865 29.1782 9.59936C28.5 9.25428 27.5929 9.10394 25.7393 9.06124L25.2439 9.05099L24.8835 8.70761C23.5424 7.42636 22.7959 6.88994 22.0715 6.6559M18.1355 4.21811C19.6722 3.71896 21.3275 3.71896 22.8642 4.21811C24.072 4.61103 25.1021 5.40369 26.2928 6.51411C27.9192 6.57219 29.209 6.73961 30.3416 7.31703C31.7806 8.0502 32.9509 9.21984 33.6848 10.6585C34.2605 11.7912 34.4279 13.0809 34.486 14.7073C35.5964 15.898 36.3891 16.9281 36.782 18.1359C37.2808 19.6734 37.2808 21.3271 36.782 22.8646C36.3891 24.0724 35.5964 25.1025 34.486 26.2932C34.4279 27.9195 34.2605 29.2093 33.6831 30.3419C32.9499 31.781 31.7803 32.9512 30.3416 33.6852C29.209 34.2609 27.9192 34.4283 26.2928 34.4864C25.1021 35.5968 24.072 36.3894 22.8642 36.7824C21.3267 37.2812 19.673 37.2812 18.1355 36.7824C16.9277 36.3894 15.8976 35.5968 14.7069 34.4864C13.0806 34.4283 11.7908 34.2609 10.6582 33.6834C9.2191 32.9503 8.04886 31.7806 7.31495 30.3419C6.73924 29.2093 6.57183 27.9195 6.51374 26.2932C5.40333 25.1025 4.61066 24.0724 4.21774 22.8646C3.7186 21.3279 3.7186 19.6726 4.21774 18.1359C4.61066 16.9281 5.40333 15.898 6.51374 14.7073C6.57183 13.0809 6.73924 11.7912 7.31666 10.6585C8.04984 9.21946 9.21947 8.04923 10.6582 7.31532C11.7908 6.73961 13.0806 6.57219 14.7069 6.51411C15.8976 5.40369 16.9277 4.61103 18.1355 4.21811Z" fill="#749BC2"/>
<path opacity="0.5" d="M24.4323 16.8905C23.422 15.9177 22.074 15.3742 20.6714 15.3742C19.2689 15.3742 17.9209 15.9177 16.9106 16.8905C16.4243 17.3576 16.0375 17.9181 15.7732 18.5384C15.5089 19.1587 15.3727 19.826 15.3727 20.5002C15.3727 21.1745 15.5089 21.8417 15.7732 22.462C16.0375 23.0823 16.4243 23.6428 16.9106 24.1099C17.9209 25.0828 19.2689 25.6262 20.6714 25.6262C22.074 25.6262 23.422 25.0828 24.4323 24.1099C24.7594 23.809 25.1909 23.6474 25.6351 23.6594C26.0794 23.6714 26.5015 23.8561 26.8118 24.1742C27.1222 24.4923 27.2963 24.9189 27.2973 25.3633C27.2983 25.8077 27.1261 26.235 26.8172 26.5546C23.4176 29.8704 17.9236 29.8704 14.5257 26.5546C13.7136 25.7692 13.0677 24.8285 12.6266 23.7883C12.1856 22.7482 11.9583 21.63 11.9583 20.5002C11.9583 19.3704 12.1856 18.2522 12.6266 17.2121C13.0677 16.172 13.7136 15.2313 14.5257 14.4459C17.9253 11.13 23.4193 11.13 26.8172 14.4459C27.1261 14.7654 27.2983 15.1927 27.2973 15.6371C27.2963 16.0816 27.1222 16.5081 26.8118 16.8262C26.5015 17.1444 26.0794 17.329 25.6351 17.341C25.1909 17.353 24.7594 17.1914 24.4323 16.8905Z" fill="#749BC2"/>
</svg>
