<svg width="99" height="99" viewBox="0 0 99 99" fill="none" xmlns="http://www.w3.org/2000/svg">
<mask id="mask0_216_1759" style="mask-type:alpha" maskUnits="userSpaceOnUse" x="0" y="0" width="99" height="99">
<circle cx="49.5" cy="49.5" r="49.5" fill="white"/>
</mask>
<g mask="url(#mask0_216_1759)">
<mask id="mask1_216_1759" style="mask-type:alpha" maskUnits="userSpaceOnUse" x="5" y="5" width="89" height="89">
<circle cx="49.499" cy="49.4999" r="43.956" fill="white"/>
</mask>
<g mask="url(#mask1_216_1759)">
<circle cx="49.4996" cy="49.4996" r="26.3736" fill="#91C8E4"/>
<mask id="mask2_216_1759" style="mask-type:alpha" maskUnits="userSpaceOnUse" x="23" y="23" width="53" height="53">
<circle cx="49.4996" cy="49.4996" r="26.3736" fill="#91C8E4"/>
</mask>
<g mask="url(#mask2_216_1759)">
<path d="M0.791016 60.7071L114.254 38.8076L122.24 80.1861L8.77751 102.086L0.791016 60.7071Z" fill="#4682A9"/>
<path d="M5.46917 42.9658L60.8589 62.4494L46.8751 102.204L-8.51465 82.7203L5.46917 42.9658Z" fill="#4682A9"/>
<path d="M30.5171 44.1533L57.8153 64.1994L44.3256 80.9813L17.0273 60.9352L30.5171 44.1533Z" fill="#4682A9"/>
</g>
</g>
</g>
<mask id="mask3_216_1759" style="mask-type:alpha" maskUnits="userSpaceOnUse" x="0" y="-7" width="100" height="100">
<circle cx="49.6982" cy="43.1641" r="49.5" fill="white"/>
</mask>
<g mask="url(#mask3_216_1759)">
<path d="M72.9628 56.9248L72.6658 57.1228L72.4678 57.8158L72.2698 58.3108L71.6758 60.3898V61.3798V62.5678L71.9728 63.8548L72.2698 64.5478L72.6658 64.8448L72.9628 64.7458L73.3588 64.2508L73.6558 63.6568V62.8648L73.8538 61.8748L74.1508 60.6868L74.6458 59.6968L75.0418 58.8058L74.1508 58.3108L73.4578 57.8158L72.9628 56.9248Z" fill="#B2D9DE" stroke="#B2D9DE" stroke-width="0.198"/>
<path d="M26.2354 50.9849L27.0274 50.5889L27.3244 51.8759L26.2354 50.9849Z" fill="#4682A9" stroke="#4682A9" stroke-width="0.198"/>
<path d="M35.2083 49.1043L34.1548 48.8073L30.5908 48.1143L33.1648 50.9853L33.6598 51.8763L33.9568 52.7673L34.5508 54.1533L36.3328 57.7173L37.7016 58.3113L38.7906 57.5193L37.2238 52.9653L36.7288 51.7773L36.3328 50.3913L35.5053 49.1043H35.2083Z" fill="#B2D9DE" stroke="#B2D9DE" stroke-width="0.198"/>
<path d="M63.7559 62.4692L63.8549 59.7962H64.1519L64.5479 59.8952H64.8449L65.9339 59.6972L65.7359 61.6772L65.5379 63.4592L65.4389 64.5482L65.0429 65.4392L64.5479 65.6372L64.1519 65.4392L63.7559 64.5482V62.4692Z" fill="#B2D9DE"/>
<path d="M66.8249 61.2812L67.0229 59.2022L67.3199 59.1032L68.2109 58.6082L70.2899 57.1232L70.7849 56.8262V57.2222L70.3889 58.0142L70.0919 58.5092L69.2009 59.6972L68.8049 60.0932L68.6069 60.1922L68.4089 60.8852L68.3099 61.6772L68.2109 62.2712L68.1119 62.7662V63.1622L67.8149 64.3502L67.3199 65.2412L66.8249 65.4392H66.5279L66.3299 65.1422L66.5279 64.1522L66.7259 62.5682L66.8249 61.2812Z" fill="#B2D9DE"/>
<path d="M63.7559 62.4692L63.8549 59.7962H64.1519L64.5479 59.8952H64.8449L65.9339 59.6972L65.7359 61.6772L65.5379 63.4592L65.4389 64.5482L65.0429 65.4392L64.5479 65.6372L64.1519 65.4392L63.7559 64.5482V62.4692Z" stroke="#B2D9DE" stroke-width="0.198"/>
<path d="M66.8249 61.2812L67.0229 59.2022L67.3199 59.1032L68.2109 58.6082L70.2899 57.1232L70.7849 56.8262V57.2222L70.3889 58.0142L70.0919 58.5092L69.2009 59.6972L68.8049 60.0932L68.6069 60.1922L68.4089 60.8852L68.3099 61.6772L68.2109 62.2712L68.1119 62.7662V63.1622L67.8149 64.3502L67.3199 65.2412L66.8249 65.4392H66.5279L66.3299 65.1422L66.5279 64.1522L66.7259 62.5682L66.8249 61.2812Z" stroke="#B2D9DE" stroke-width="0.198"/>
</g>
<mask id="mask4_216_1759" style="mask-type:alpha" maskUnits="userSpaceOnUse" x="0" y="0" width="99" height="99">
<circle cx="49.5" cy="49.5" r="49.5" fill="white"/>
</mask>
<g mask="url(#mask4_216_1759)">
<path d="M28.0168 52.4703L25.7398 49.7973L24.8488 48.1143L23.7598 46.7283L24.7498 46.5303L25.7398 46.7283H26.6308L27.1258 46.8273L28.0168 47.1243L28.7954 47.6434L28.9078 47.0253L30.3928 47.9163L30.5908 48.7083L31.0858 49.4013L31.4818 50.3913L31.8778 52.6683L32.0758 53.5593L31.8778 54.2523L31.2838 55.5393V56.2323L31.8778 57.0243L32.3728 57.3213L31.8778 58.0143L29.8978 59.4993L29.0068 58.7073L29.1638 58.5366L28.9078 58.7073L28.1865 57.5408L29.2048 56.5293L29.0068 55.1433L28.7098 53.5593L28.3138 52.8663L28.0168 52.4703Z" fill="#B2D9DE"/>
<path d="M31.2838 56.2323L31.0858 55.3413L30.9868 54.9453L30.5908 53.5593L30.1948 52.1733L29.6998 50.6883L29.3038 49.9953L29.5018 49.2033L29.2048 48.3123L28.7098 48.1143L28.9078 47.0253L30.3928 47.9163L30.5908 48.7083L31.0858 49.4013L31.4818 50.3913L31.8778 52.6683L32.0758 53.5593L31.8778 54.2523L31.2838 55.5393V56.2323ZM31.2838 56.2323L31.8778 57.0243L32.3728 57.3213L31.8778 58.0143L29.8978 59.4993L29.0068 58.7073L31.2838 56.2323ZM23.7598 46.7283L24.7498 46.5303L25.7398 46.7283H26.6308L27.1258 46.8273L28.0168 47.1243L28.9078 47.7183L28.7098 47.9163L30.1948 49.0053L29.4028 50.1685L29.9968 51.5793L30.4211 52.9653L30.7039 53.9553L30.9868 55.3413L31.2398 56.0343L31.2838 56.9253L30.9868 57.3213L28.9078 58.7073L28.1865 57.5408L29.2048 56.5293L29.0068 55.1433L28.7098 53.5593L28.3138 52.8663L28.0168 52.4703L25.7398 49.7973L24.8488 48.1143L23.7598 46.7283Z" stroke="#B2D9DE" stroke-width="0.198"/>
<path d="M12.1773 49.896C9.59283 49.53 4.05701 52.8984 0.725039 55.1316C-0.882353 56.2088 -3.06501 56.1388 -4.10822 54.5091C-6.02161 51.52 -7.39357 46.3595 0.990301 41.778C2.70172 40.8104 7.9203 38.3689 8.3163 38.214C8.7123 38.0592 9.76642 37.6993 11.2863 38.016C12.8062 38.3328 17.5089 39.3854 20.5923 39.798C24.086 40.5712 29.4094 41.2402 30.2943 41.58C31.1792 41.9198 32.9449 43.1458 33.8583 43.659C34.9792 44.3275 35.3163 44.451 36.2343 45.045C37.9173 46.134 38.0163 46.233 38.8083 46.827C39.6003 47.322 39.655 47.6246 40.1943 48.213C41.2833 49.401 42.1743 50.193 43.1643 51.381C43.6593 51.975 43.5603 51.876 44.5503 52.965C44.8716 53.4148 44.9843 53.531 45.1322 53.6924C45.3402 53.9196 45.4694 54.2503 45.4047 54.5514C45.3729 54.6991 45.2936 54.8054 45.2034 54.9264L45.2019 54.9284C45.1825 54.9545 45.1613 54.9811 45.135 55.0095C44.9687 55.1895 44.7245 55.2693 44.4884 55.335C44.1692 55.4238 43.9167 55.4836 43.3623 55.341C42.9682 55.2628 43.0236 55.1851 42.4713 54.846C42.2301 54.6836 42.0553 54.5843 41.8614 54.4161C41.1876 53.8313 40.5059 53.2053 39.8746 52.5748C39.6902 52.3905 39.5022 52.1871 39.3033 51.975C38.7983 51.4366 38.579 51.2408 38.0358 50.583C37.8245 50.3271 37.4901 50.0313 37.2457 49.8067C37.0444 49.6217 36.9047 49.5308 36.6558 49.4178C35.1341 48.7271 33.765 48.748 32.0336 48.0903C31.6016 47.9262 31.1409 47.8344 30.6812 47.8824C30.325 47.9196 30.0087 47.9596 29.6715 48.0069C28.8853 48.1173 27.6996 48.325 27.0118 48.7217C26.5608 48.9819 26.0112 49.3579 25.8037 49.8354C25.7862 49.8756 25.7752 49.9178 25.762 49.9687L25.7612 49.9716C25.6348 50.4572 25.5091 50.9875 25.8551 51.351C25.9405 51.4408 26.0422 51.5309 26.1625 51.6151C26.2546 51.6701 26.3447 51.7236 26.4333 51.7757C27.0219 52.1223 27.5435 52.412 28.1163 52.7413C28.8328 53.1532 29.6293 53.6269 30.7373 54.351L30.8883 54.45C32.3764 55.5077 32.6716 56.1038 32.488 57.321C32.4831 57.3536 32.4779 57.3866 32.4723 57.42C32.4307 57.9571 31.9894 58.398 31.8825 58.5048L31.8783 58.509C31.7793 58.608 30.4918 59.1607 29.4033 58.509C29.3672 58.4831 29.3307 58.457 29.2938 58.4307C28.9314 58.1727 28.4133 57.915 28.1074 57.618C27.8015 57.321 24.3133 55.2215 24.1563 55.143C23.9583 55.044 20.859 53.5435 18.4143 53.064C15.8756 52.7118 14.6116 51.9645 12.1773 49.896Z" fill="white"/>
<path d="M48.9063 49.896C49.2033 49.5 50.6883 49.302 51.7773 49.005C52.342 48.851 53.6627 48.3377 54.9774 47.817C56.1979 47.3336 57.4134 46.8438 58.0143 46.629C58.2427 46.5474 58.5082 46.4984 58.8063 46.4712C59.458 46.4117 60.2656 46.4561 61.1823 46.4899C62.1374 46.525 63.2109 46.5486 64.3503 46.431C65.4545 46.3171 67.155 45.8045 68.789 45.243C69.3878 45.0372 69.9776 44.8249 70.526 44.6231C71.9957 44.0824 74.9891 43.2693 76.5273 42.9753C84.0746 41.5326 88.9955 40.5552 97.1218 38.9831C97.3819 38.9328 97.6487 38.907 97.9136 38.907H104.904C107.499 38.907 109.461 41.2589 108.994 43.8123L108.242 47.9272C108.091 48.758 107.689 49.5229 107.092 50.1201L106.007 51.2054C105.142 52.0702 103.94 52.5104 102.721 52.4089L99.1748 52.1133C98.8615 52.0872 98.5522 52.0243 98.2515 51.9326C97.002 51.5514 96.136 51.3786 94.0503 50.985C93.3411 50.7489 91.6377 50.7926 90.2883 50.985C88.939 51.1774 88.8286 51.086 87.7143 51.876C86.6 52.666 86.4864 53.1189 85.6353 53.955C84.9632 54.5273 84.6256 54.797 84.0513 55.242C83.0301 56.0179 82.4849 56.4535 81.0813 57.222C80.0023 57.772 79.3997 58.0747 78.4083 58.41C77.7649 58.651 77.3724 58.7432 76.5273 58.707L76.4862 58.7081C76.139 58.7174 75.9321 58.7229 75.4383 58.5709C75.4383 58.724 75.3915 58.8734 75.3047 58.9995C74.89 59.6017 74.5283 60.15 74.3493 60.687C74.1513 61.281 74.1032 61.4252 74.0523 61.875C74.0014 62.3248 74.1513 63.36 74.1513 63.36C74.1562 64.009 74.0542 64.4024 73.8161 64.8139C73.6064 65.1762 73.2828 65.5467 72.8643 65.538C72.7747 65.5308 72.7004 65.5212 72.627 65.5022C72.374 65.4368 72.1952 65.2956 72.0553 65.075C71.9397 64.8927 71.8447 64.6415 71.784 64.4343C71.7187 64.2112 71.6326 63.9219 71.5773 63.756C71.4783 63.459 71.4783 63.5378 71.2803 62.271C71.1819 61.6411 71.1568 61.2215 71.1566 60.9588C71.1563 60.7111 71.1873 60.4639 71.213 60.2175C71.2506 59.8572 71.3283 59.2814 71.4783 58.707C71.587 58.3891 71.6759 58.1413 71.7738 57.8828C71.9267 57.4792 71.6991 57.0297 71.2803 56.925C70.8969 58.0276 70.6372 58.618 69.8943 59.499C69.5893 59.9242 69.2013 60.192 69.0033 60.489C68.8053 60.786 68.9319 61.5723 68.8053 62.172C68.7229 62.9766 68.6241 63.3769 68.4093 64.053C68.219 64.6909 68.083 65.0415 67.7163 65.637C67.6089 65.8098 67.3976 65.9294 67.1891 65.9994C66.8323 66.1192 66.3646 66.0322 66.1323 65.736L65.708 65.142C65.6609 65.2738 65.6271 65.4099 65.5904 65.545C65.5277 65.7763 65.4413 65.9129 65.2233 66.033C65.001 66.1556 64.5554 66.2592 64.3503 66.231C63.8845 66.167 63.5284 65.8296 63.4067 65.3754C63.3545 65.1805 63.3094 64.9482 63.2613 64.647C63.2348 63.9007 63.2284 63.4371 63.2613 62.37C63.324 61.3263 63.3682 60.585 63.4366 59.435L63.4593 59.0541C63.2624 59.0209 63.0715 58.9586 62.8929 58.8693L62.7663 58.806C62.7663 58.806 62.2378 58.5175 62.0479 58.2943C61.8486 58.06 61.7429 57.7608 61.6848 57.4588L61.6773 57.42C61.6728 57.385 61.67 57.3517 61.6692 57.3186C61.661 56.982 61.8569 56.6735 62.0719 56.4144C62.1844 56.2787 62.3032 56.1646 62.4693 56.034C62.8673 55.707 63.1283 55.5127 63.6785 55.143C63.6785 55.143 64.0533 54.846 64.3503 54.648C64.6473 54.45 67.0233 53.262 67.0233 53.262C67.3225 53.0937 67.5732 52.9599 67.8153 52.8233C67.6836 52.7858 67.5539 52.7393 67.4354 52.6706C67.2868 52.5845 67.1789 52.4999 67.0233 52.371C66.4237 51.9487 66.1238 51.6629 65.6373 51.084C65.4572 50.8997 65.372 50.7888 65.2233 50.589C64.9492 50.5402 64.8457 50.523 64.6759 50.4948L64.6473 50.49C63.2282 50.443 63.4094 50.5506 60.6707 50.2013C60.3542 50.1609 60.0328 50.1168 59.7215 50.0466C59.6141 50.0224 59.4905 49.9893 59.3508 49.9415C59.0702 50.0898 58.7149 50.2257 58.4103 50.292C56.2405 50.9883 55.1264 51.426 52.5693 51.579C52.1687 51.6445 51.5881 51.6667 51.2242 51.6742C50.9991 51.6789 50.7746 51.6605 50.5544 51.6137C50.1724 51.5325 49.5642 51.3794 49.3023 51.183C48.9063 50.886 48.8073 50.688 48.8073 50.688C48.8073 50.688 48.6093 50.292 48.9063 49.896Z" fill="white"/>
<path d="M12.1773 49.896C9.59283 49.53 4.05701 52.8984 0.72504 55.1316C-0.882353 56.2088 -3.065 56.1388 -4.10822 54.5091C-6.02161 51.52 -7.39357 46.3595 0.990301 41.778C2.70172 40.8104 7.9203 38.3689 8.3163 38.214C8.7123 38.0592 9.76642 37.6993 11.2863 38.016C12.8062 38.3328 17.5089 39.3854 20.5923 39.798C24.086 40.5712 29.4094 41.2402 30.2943 41.58C31.1792 41.9198 32.9449 43.1458 33.8583 43.659C34.9792 44.3275 35.3163 44.451 36.2343 45.045C37.9173 46.134 38.0163 46.233 38.8083 46.827C39.6003 47.322 39.655 47.6246 40.1943 48.213C41.2833 49.401 42.1743 50.193 43.1643 51.381C43.6593 51.975 43.5603 51.876 44.5503 52.965C44.8716 53.4148 44.9843 53.531 45.1322 53.6924C45.3402 53.9196 45.4694 54.2503 45.4047 54.5514V54.5514C45.3727 54.7 45.2928 54.8066 45.2019 54.9284C45.1825 54.9545 45.1613 54.9811 45.135 55.0095C44.9687 55.1895 44.7245 55.2693 44.4884 55.335C44.1692 55.4238 43.9167 55.4836 43.3623 55.341C42.9682 55.2628 43.0236 55.1851 42.4713 54.846C42.2301 54.6836 42.0553 54.5843 41.8614 54.4161C41.1876 53.8313 40.5059 53.2053 39.8746 52.5748C39.6902 52.3905 39.5022 52.1871 39.3033 51.975C38.7983 51.4366 38.579 51.2408 38.0358 50.583C37.8245 50.3271 37.4901 50.0313 37.2457 49.8067V49.8067C37.0444 49.6217 36.9047 49.5308 36.6558 49.4178C35.1341 48.7271 33.765 48.748 32.0336 48.0903C31.6016 47.9262 31.1409 47.8344 30.6812 47.8824C30.325 47.9196 30.0087 47.9596 29.6715 48.0069C28.8852 48.1173 27.6996 48.325 27.0118 48.7217V48.7217C26.5608 48.9819 26.0112 49.3579 25.8037 49.8354C25.7859 49.8764 25.7748 49.9194 25.7612 49.9716C25.6348 50.4572 25.5091 50.9875 25.8551 51.351C25.9984 51.5016 26.1871 51.6531 26.4333 51.7757M12.1773 49.896C14.6116 51.9645 15.8756 52.7118 18.4143 53.064C20.859 53.5435 23.9583 55.044 24.1563 55.143C24.3133 55.2215 27.8015 57.321 28.1074 57.618M12.1773 49.896C11.0897 47.6711 10.1011 45.549 9.6033 45.045C9.10552 44.541 7.28978 44.2652 6.5343 44.451M23.7603 49.599C24.8803 50.5274 24.4763 50.4918 25.9383 51.48C26.7434 51.9683 27.3885 52.3229 28.1163 52.7413C28.8328 53.1532 29.6293 53.6269 30.7373 54.351C30.787 54.3835 30.8373 54.4165 30.8883 54.45C32.4162 55.5359 32.6865 56.1353 32.4723 57.42C32.4302 57.9645 31.9773 58.41 31.8783 58.509C31.7793 58.608 30.4918 59.1607 29.4033 58.509C29.3672 58.4831 29.3307 58.457 29.2938 58.4307C28.9314 58.1727 28.4133 57.915 28.1074 57.618M58.8063 49.698C58.9053 49.599 59.3508 49.9415 59.3508 49.9415M59.3508 49.9415C59.4905 49.9893 59.6141 50.0224 59.7215 50.0466C60.0328 50.1168 60.3542 50.1609 60.6707 50.2013C63.4094 50.5506 63.2282 50.443 64.6473 50.49C64.8348 50.5212 64.9341 50.5375 65.2233 50.589M59.3508 49.9415C59.0702 50.0898 58.7149 50.2257 58.4103 50.292C56.2405 50.9883 55.1264 51.426 52.5693 51.579C52.1687 51.6445 51.5881 51.6667 51.2242 51.6742C50.9991 51.6789 50.7746 51.6605 50.5544 51.6137C50.1724 51.5325 49.5642 51.3794 49.3023 51.183C48.9063 50.886 48.8073 50.688 48.8073 50.688C48.8073 50.688 48.6093 50.292 48.9063 49.896C49.2033 49.5 50.6883 49.302 51.7773 49.005C52.342 48.851 53.6627 48.3377 54.9774 47.817M64.8453 49.896C64.9974 50.1395 65.2233 50.589 65.2233 50.589M65.2233 50.589C65.372 50.7888 65.4572 50.8997 65.6373 51.084C66.1238 51.6629 66.4237 51.9487 67.0233 52.371C67.1789 52.4999 67.2868 52.5845 67.4354 52.6706C67.5539 52.7393 67.6836 52.7858 67.8153 52.8233V52.8233M68.9043 50.292L70.3893 50.589M73.0623 48.213C72.5089 48.4282 72.2275 48.708 71.7753 49.203C70.6472 50.438 70.3943 50.6683 69.8359 51.3041C69.6763 51.4859 69.5039 51.6571 69.3141 51.8072C68.6774 52.3107 68.2608 52.5718 67.8153 52.8233M63.6785 55.143C63.6785 55.143 64.0533 54.846 64.3503 54.648C64.6473 54.45 67.0233 53.262 67.0233 53.262C67.3225 53.0937 67.5732 52.9599 67.8153 52.8233M63.6785 55.143C63.1283 55.5127 62.8673 55.707 62.4693 56.034C62.3032 56.1646 62.1844 56.2787 62.0719 56.4144C61.8569 56.6735 61.661 56.982 61.6692 57.3186C61.67 57.3517 61.6728 57.385 61.6773 57.42C61.6799 57.4333 61.6823 57.4463 61.6847 57.4588C61.7429 57.7608 61.8486 58.06 62.0479 58.2943V58.2943C62.2378 58.5175 62.7663 58.806 62.7663 58.806V58.806M63.6785 55.143C64.0469 55.1251 64.2951 55.1315 64.6069 55.1797C64.8323 55.2146 65.0509 55.2862 65.2547 55.3885C65.2872 55.4048 65.3174 55.4205 65.3456 55.4358C65.5534 55.548 65.7029 55.7394 65.8047 55.9524C65.824 55.9928 65.8403 56.0296 65.8544 56.0643C65.9239 56.2353 65.9136 56.4937 65.8905 56.6769V56.6769C65.8482 57.0124 65.7194 57.2628 65.485 57.5065C65.3419 57.6552 65.2471 57.7382 65.1423 57.816C64.6288 58.2431 64.4195 58.3848 64.1523 58.509C63.8442 58.6127 63.6852 58.6614 63.4593 58.707C63.0707 58.7779 62.9478 58.7916 62.7663 58.806M62.7663 58.806L62.8929 58.8693C63.0715 58.9586 63.2624 59.0209 63.4593 59.0541V59.0541M78.2103 54.747C76.6222 54.7221 76.1951 54.7036 75.4383 54.6826M78.3093 54.747C79.1266 54.6431 80.7843 53.955 80.7843 53.955C80.7843 53.955 81.5311 53.685 82.4673 53.064C82.8718 52.7853 83.1286 52.5992 83.8288 51.9018C83.9775 51.7536 84.1137 51.593 84.2354 51.4219C84.6318 50.8642 84.9223 50.4087 85.4373 49.5C85.5015 49.3811 85.647 49.0911 85.7882 48.807C85.9625 48.4561 86.1303 48.114 86.1303 48.114C86.1303 48.114 86.3535 47.5311 86.3283 47.124M75.4383 54.6826C75.1707 54.6836 74.9594 54.6831 74.777 54.6805C74.2327 54.673 73.6849 54.73 73.1791 54.9312C73.0235 54.9931 72.8616 55.0605 72.6663 55.143C71.9899 55.5333 71.6412 55.7584 71.1318 56.1825M75.4383 54.6826C75.5343 55.1598 75.6344 55.3777 75.9333 55.638C76.3145 55.9901 76.5071 56.1348 76.8243 56.331C77.4353 56.6119 77.7492 56.6888 78.3093 56.826M73.2603 56.43C73.4165 56.9876 73.5573 56.9939 74.0523 57.519C74.5473 58.0441 74.7963 58.1849 75.1413 58.41L75.4383 58.5709M63.4593 59.0541C64.1793 59.3514 64.5613 59.3917 65.2233 59.3516C65.7539 59.2597 66.0403 59.175 66.5283 58.9463M63.4593 59.0541C63.3773 60.4311 63.3307 61.2155 63.2613 62.37C63.2284 63.4371 63.2348 63.9007 63.2613 64.647C63.3094 64.9482 63.3545 65.1805 63.4067 65.3754C63.5284 65.8296 63.8845 66.167 64.3503 66.231V66.231C64.5554 66.2592 65.001 66.1556 65.2233 66.033C65.4413 65.9129 65.5277 65.7763 65.5904 65.545C65.6271 65.4099 65.6609 65.2738 65.708 65.142V65.142M66.5283 58.9463C66.7163 58.8896 66.8607 58.8299 66.9942 58.7697C67.4023 58.5857 67.7975 58.3681 68.1719 58.1226C68.5973 57.8436 68.9831 57.6267 69.5973 57.222C70.0332 56.8704 70.3061 56.6638 71.1318 56.1825M66.5283 58.9463V59.994L66.3303 61.974L66.1829 63.4481C66.1493 63.7841 66.0749 64.1148 65.9613 64.4328L65.708 65.142M71.1318 56.1825L71.2803 56.925M71.2803 56.925C70.8969 58.0276 70.6372 58.618 69.8943 59.499C69.5893 59.9242 69.2013 60.192 69.0033 60.489C68.8053 60.786 68.9319 61.5723 68.8053 62.172C68.7229 62.9766 68.6241 63.3769 68.4093 64.053C68.219 64.6909 68.083 65.0415 67.7163 65.637C67.6089 65.8098 67.3976 65.9294 67.1891 65.9994C66.8323 66.1192 66.3646 66.0322 66.1323 65.736V65.736L65.708 65.142M71.2803 56.925V56.925C71.6991 57.0297 71.9267 57.4792 71.7738 57.8828C71.6759 58.1413 71.587 58.3891 71.4783 58.707C71.3283 59.2814 71.2507 59.8572 71.213 60.2175C71.1873 60.4639 71.1563 60.7111 71.1566 60.9588C71.1568 61.2215 71.1819 61.6411 71.2803 62.271C71.4783 63.5378 71.4783 63.459 71.5773 63.756C71.6326 63.9219 71.7187 64.2112 71.784 64.4343C71.8447 64.6415 71.9397 64.8927 72.0553 65.075V65.075C72.1952 65.2956 72.374 65.4368 72.627 65.5022C72.7004 65.5212 72.7747 65.5308 72.8643 65.538V65.538C73.2828 65.5467 73.6064 65.1762 73.8161 64.8139C74.0542 64.4024 74.1562 64.009 74.1513 63.36C74.1513 63.36 74.0014 62.3248 74.0523 61.875C74.1032 61.4252 74.1513 61.281 74.3493 60.687C74.5283 60.15 74.89 59.6017 75.3047 58.9995C75.3915 58.8734 75.4383 58.724 75.4383 58.5709V58.5709M75.4383 58.707V58.5709M75.4383 58.5709C75.9513 58.7288 76.1547 58.7167 76.5273 58.707C77.3724 58.7432 77.7649 58.651 78.4083 58.41C79.3997 58.0747 80.0023 57.772 81.0813 57.222C82.4849 56.4535 83.0301 56.0179 84.0513 55.242C84.6256 54.797 84.9632 54.5273 85.6353 53.955C86.4864 53.1189 86.6 52.666 87.7143 51.876C88.8286 51.086 88.939 51.1774 90.2883 50.985C91.6377 50.7926 93.3411 50.7489 94.0503 50.985C96.136 51.3786 97.002 51.5514 98.2515 51.9326C98.5522 52.0243 98.8615 52.0872 99.1748 52.1133L102.721 52.4089C103.94 52.5104 105.142 52.0702 106.007 51.2054L107.092 50.1201C107.689 49.5229 108.091 48.758 108.242 47.9272L108.994 43.8123C109.461 41.2589 107.499 38.907 104.904 38.907H97.9136C97.6487 38.907 97.3819 38.9328 97.1218 38.9831C88.9955 40.5552 84.0746 41.5326 76.5273 42.9753V42.9753C74.9891 43.2693 71.9957 44.0824 70.526 44.6231C69.9776 44.8249 69.3878 45.0372 68.789 45.243C67.155 45.8045 65.4545 46.3171 64.3503 46.431C63.2109 46.5486 62.1374 46.525 61.1823 46.4899C60.2656 46.4561 59.458 46.4117 58.8063 46.4712M32.488 57.321C32.488 57.123 30.2943 55.7538 29.9973 55.638C29.7003 55.5223 29.322 55.6496 29.1063 55.836C28.2808 56.7772 28.4133 57.123 28.1074 57.618M54.9774 47.817C56.1979 47.3336 57.4134 46.8438 58.0143 46.629C58.2427 46.5474 58.5082 46.4984 58.8063 46.4712M54.9774 47.817L58.8063 46.4712" stroke="#03408F" stroke-width="0.594" stroke-linecap="round"/>
<path d="M71.2804 61.4787L71.8744 57.4197C72.3052 56.8699 72.6178 56.7374 73.3429 56.9247L74.5474 58.1127L75.2404 58.8057L74.3494 60.2907L74.2504 62.4396V62.952L74.0689 63.7207L73.5849 64.4744L73.3429 65.3397L72.6169 65.4387L71.8744 64.3497L71.2804 61.4787Z" fill="#B2D9DE"/>
<path d="M68.8054 62.4396C68.7064 62.4396 67.6174 65.9337 67.5184 65.9337C67.4392 65.9337 66.6274 65.8017 66.2314 65.7357L65.8354 64.9437L65.6374 65.5377L64.8454 66.2307L63.5584 65.9337L63.3604 64.4744V60.4887L63.6574 59.3007L64.6474 59.3997L66.7264 59.0037L69.9934 57.1227L70.8844 56.4297L71.2804 57.1227L69.9934 59.4987L68.9044 60.6867L68.8054 62.4396Z" fill="#B2D9DE"/>
<path d="M65.8354 64.9437L66.2314 65.7357C66.6274 65.8017 67.4392 65.9337 67.5184 65.9337C67.6174 65.9337 68.7064 62.4396 68.8054 62.4396L68.9044 60.6867L69.9934 59.4987L71.2804 57.1227L70.8844 56.4297L69.9934 57.1227L66.7264 59.0037M65.8354 64.9437L66.6274 59.5977L66.7264 59.0037M65.8354 64.9437L65.6374 65.5377L64.8454 66.2307L63.5584 65.9337L63.3604 64.4744V60.4887L63.6574 59.3007L64.6474 59.3997L66.7264 59.0037M71.8744 57.4197L71.2804 61.4787L71.8744 64.3497L72.6169 65.4387L73.3429 65.3397L73.5849 64.4744L74.0689 63.7207L74.2504 62.952V62.4396L74.3494 60.2907L75.2404 58.8057L74.5474 58.1127L73.3429 56.9247C72.6178 56.7374 72.3052 56.8699 71.8744 57.4197Z" stroke="#B2D9DE" stroke-width="0.198"/>
<path d="M23.7602 49.599C24.8802 50.5274 24.4762 50.4918 25.9382 51.48C26.7433 51.9683 27.3885 52.3229 28.1162 52.7413C28.8327 53.1532 29.6292 53.6269 30.7372 54.351C30.7869 54.3835 30.8372 54.4165 30.8882 54.45C32.4161 55.5359 32.6864 56.1353 32.4722 57.42C32.4301 57.9645 31.9772 58.41 31.8782 58.509C31.7792 58.608 30.4917 59.1607 29.4032 58.509C29.3672 58.4831 29.3307 58.457 29.2937 58.4307C28.9313 58.1727 28.4132 57.915 28.1073 57.618M6.53423 44.451C7.28971 44.2652 9.10546 44.541 9.60323 45.045C10.0423 45.4896 10.8631 47.1928 11.7969 49.115C12.0472 49.6303 12.4005 50.0903 12.8441 50.4527C14.8643 52.1035 16.1177 52.7454 18.4142 53.064C20.8589 53.5435 23.9582 55.044 24.1562 55.143C24.3133 55.2215 27.8014 57.321 28.1073 57.618M26.4332 51.7757C26.1871 51.6531 25.9983 51.5016 25.855 51.351C25.5091 50.9875 25.6347 50.4572 25.7612 49.9716C25.7748 49.9194 25.7858 49.8764 25.8036 49.8354C26.0112 49.3579 26.5607 48.9819 27.0118 48.7217V48.7217C27.6995 48.325 28.8852 48.1173 29.6714 48.0069C30.0086 47.9596 30.3249 47.9196 30.6811 47.8824C31.1408 47.8344 31.6015 47.9262 32.0335 48.0903C33.765 48.748 35.134 48.7271 36.6558 49.4178C36.9047 49.5308 37.0444 49.6217 37.2456 49.8067V49.8067C37.49 50.0313 37.8244 50.3271 38.0357 50.583C38.5789 51.2408 38.7982 51.4366 39.3032 51.975C39.5021 52.1871 39.6901 52.3905 39.8746 52.5748C40.5058 53.2053 41.1875 53.8313 41.8614 54.4161C42.0553 54.5843 42.23 54.6836 42.4712 54.846C43.0235 55.1851 42.9682 55.2628 43.3622 55.341C43.9166 55.4836 44.1692 55.4238 44.4884 55.335C44.7244 55.2693 44.9687 55.1895 45.1349 55.0095C45.1612 54.9811 45.1824 54.9545 45.2018 54.9284C45.2927 54.8066 45.3726 54.7 45.4046 54.5514V54.5514C45.4693 54.2503 45.3401 53.9196 45.1321 53.6924C44.9843 53.531 44.8715 53.4148 44.5502 52.965C43.5602 51.876 43.6592 51.975 43.1642 51.381C42.1742 50.193 41.2832 49.401 40.1942 48.213C39.6549 47.6246 39.6002 47.322 38.8082 46.827C38.0162 46.233 37.9172 46.134 36.2342 45.045C35.3162 44.451 34.9791 44.3275 33.8582 43.659C32.9448 43.1458 31.1791 41.9198 30.2942 41.58C29.4093 41.2402 24.0859 40.5712 20.5922 39.798C17.5088 39.3854 12.8061 38.3328 11.2862 38.016C9.76635 37.6993 8.71223 38.0592 8.31623 38.214C7.92023 38.3689 2.70165 40.8104 0.990234 41.778M58.8062 49.698C58.9052 49.599 59.3507 49.9415 59.3507 49.9415M59.3507 49.9415C59.4904 49.9893 59.614 50.0224 59.7214 50.0466C60.0327 50.1168 60.3541 50.1609 60.6706 50.2013C63.4093 50.5506 63.2281 50.443 64.6472 50.49C64.8348 50.5212 64.9341 50.5375 65.2232 50.589M59.3507 49.9415C59.0701 50.0898 58.7148 50.2257 58.4102 50.292C56.2404 50.9883 55.1263 51.426 52.5692 51.579C52.1686 51.6445 51.5881 51.6667 51.2242 51.6742C50.999 51.6789 50.7746 51.6605 50.5543 51.6137C50.1723 51.5325 49.5641 51.3794 49.3022 51.183C48.9062 50.886 48.8072 50.688 48.8072 50.688C48.8072 50.688 48.6092 50.292 48.9062 49.896C49.2032 49.5 50.6882 49.302 51.7772 49.005C52.342 48.851 53.6626 48.3377 54.9773 47.817M64.8452 49.896C64.9973 50.1395 65.2232 50.589 65.2232 50.589M65.2232 50.589C65.3719 50.7888 65.4571 50.8997 65.6372 51.084C66.1237 51.6629 66.4236 51.9487 67.0232 52.371C67.1788 52.4999 67.2867 52.5845 67.4353 52.6706C67.5538 52.7393 67.6835 52.7858 67.8152 52.8233V52.8233M68.9042 50.292L70.3892 50.589M73.0622 48.213C72.5088 48.4282 72.2274 48.708 71.7752 49.203C70.6471 50.438 70.3942 50.6683 69.8359 51.3041C69.6762 51.4859 69.5038 51.6571 69.314 51.8072C68.6773 52.3107 68.2607 52.5718 67.8152 52.8233M63.6784 55.143C63.6784 55.143 64.0532 54.846 64.3502 54.648C64.6472 54.45 67.0232 53.262 67.0232 53.262C67.3224 53.0937 67.5731 52.9599 67.8152 52.8233M63.6784 55.143C63.1282 55.5127 62.8672 55.707 62.4692 56.034C62.3031 56.1646 62.1843 56.2787 62.0718 56.4144C61.8568 56.6735 61.6609 56.982 61.6691 57.3186C61.6699 57.3517 61.6727 57.385 61.6772 57.42C61.6798 57.4333 61.6823 57.4463 61.6847 57.4588C61.7428 57.7608 61.8485 58.06 62.0478 58.2943V58.2943C62.2377 58.5175 62.7662 58.806 62.7662 58.806V58.806M63.6784 55.143C64.0468 55.1251 64.295 55.1315 64.6068 55.1797C64.8322 55.2146 65.0508 55.2862 65.2546 55.3885C65.2871 55.4048 65.3173 55.4205 65.3455 55.4358C65.5533 55.548 65.7028 55.7394 65.8046 55.9524C65.8239 55.9928 65.8402 56.0296 65.8543 56.0643C65.9238 56.2353 65.9136 56.4937 65.8905 56.6769V56.6769C65.8481 57.0124 65.7193 57.2628 65.4849 57.5065C65.3419 57.6552 65.247 57.7382 65.1422 57.816C64.6288 58.2431 64.4195 58.3848 64.1522 58.509C63.8442 58.6127 63.6851 58.6614 63.4592 58.707C63.0706 58.7779 62.9477 58.7916 62.7662 58.806M62.7662 58.806L62.8928 58.8693C63.0714 58.9586 63.2623 59.0209 63.4592 59.0541V59.0541M78.2102 54.747C76.6221 54.7221 76.1951 54.7036 75.4382 54.6826M78.3092 54.747C79.1265 54.6431 80.7842 53.955 80.7842 53.955C80.7842 53.955 81.531 53.685 82.4672 53.064C82.8717 52.7853 83.1285 52.5992 83.8287 51.9018C83.9774 51.7536 84.1137 51.593 84.2353 51.4219C84.6317 50.8642 84.9222 50.4087 85.4372 49.5C85.5015 49.3811 85.6469 49.0911 85.7881 48.807C85.9624 48.4561 86.1302 48.114 86.1302 48.114C86.1302 48.114 86.3534 47.5311 86.3282 47.124M75.4382 54.6826C75.1707 54.6836 74.9593 54.6831 74.7769 54.6805C74.2326 54.673 73.6848 54.73 73.179 54.9312C73.0234 54.9931 72.8615 55.0605 72.6662 55.143C71.9898 55.5333 71.6411 55.7584 71.1317 56.1825M75.4382 54.6826C75.5342 55.1598 75.6343 55.3777 75.9332 55.638C76.3144 55.9901 76.507 56.1348 76.8242 56.331C77.4352 56.6119 77.7492 56.6888 78.3092 56.826M73.2602 56.43C73.4164 56.9876 73.5572 56.9939 74.0522 57.519C74.5472 58.0441 74.7963 58.1849 75.1412 58.41L75.4382 58.5709M63.4592 59.0541C64.1792 59.3514 64.5612 59.3917 65.2232 59.3516C65.7538 59.2597 66.0402 59.175 66.5282 58.9463M63.4592 59.0541C63.3773 60.4311 63.3306 61.2155 63.2612 62.37C63.2283 63.4371 63.2347 63.9007 63.2612 64.647C63.3093 64.9482 63.3544 65.1805 63.4066 65.3754C63.5283 65.8296 63.8844 66.167 64.3502 66.231V66.231C64.5553 66.2592 65.001 66.1556 65.2232 66.033C65.4412 65.9129 65.5276 65.7763 65.5904 65.545C65.627 65.4099 65.6609 65.2738 65.7079 65.142V65.142M66.5282 58.9463C66.7162 58.8896 66.8607 58.8299 66.9941 58.7697C67.4023 58.5857 67.7974 58.3681 68.1718 58.1226C68.5972 57.8436 68.983 57.6267 69.5972 57.222C70.0332 56.8704 70.306 56.6638 71.1317 56.1825M66.5282 58.9463V59.994L66.3302 61.974L66.1828 63.4481C66.1492 63.7841 66.0748 64.1148 65.9612 64.4328L65.7079 65.142M71.1317 56.1825L71.2802 56.925M71.2802 56.925C70.8969 58.0276 70.6371 58.618 69.8942 59.499C69.5892 59.9242 69.2012 60.192 69.0032 60.489C68.8052 60.786 68.9318 61.5723 68.8052 62.172C68.7228 62.9766 68.6241 63.3769 68.4092 64.053C68.2189 64.6909 68.0829 65.0415 67.7162 65.637C67.6088 65.8098 67.3975 65.9294 67.1891 65.9994C66.8322 66.1192 66.3645 66.0322 66.1322 65.736V65.736L65.7079 65.142M71.2802 56.925V56.925C71.699 57.0297 71.9266 57.4792 71.7737 57.8828C71.6758 58.1413 71.587 58.3891 71.4782 58.707C71.3282 59.2814 71.2506 59.8572 71.2129 60.2175C71.1872 60.4639 71.1562 60.7111 71.1565 60.9588C71.1568 61.2215 71.1818 61.6411 71.2802 62.271C71.4782 63.5378 71.4782 63.459 71.5772 63.756C71.6325 63.9219 71.7187 64.2112 71.784 64.4343C71.8446 64.6415 71.9396 64.8927 72.0552 65.075V65.075C72.1951 65.2956 72.3739 65.4368 72.6269 65.5022C72.7003 65.5212 72.7747 65.5308 72.8642 65.538V65.538C73.2828 65.5467 73.6063 65.1762 73.816 64.8139C74.0541 64.4024 74.1561 64.009 74.1512 63.36C74.1512 63.36 74.0013 62.3248 74.0522 61.875C74.1032 61.4252 74.1512 61.281 74.3492 60.687C74.5282 60.15 74.8899 59.6017 75.3046 58.9995C75.3915 58.8734 75.4382 58.724 75.4382 58.5709V58.5709M75.4382 58.707V58.5709M75.4382 58.5709C75.9512 58.7288 76.1546 58.7167 76.5272 58.707C77.3723 58.7432 77.7648 58.651 78.4082 58.41C79.3997 58.0747 80.0022 57.772 81.0812 57.222C82.4848 56.4535 83.03 56.0179 84.0512 55.242C84.6255 54.797 84.9631 54.5273 85.6352 53.955C86.4863 53.1189 86.6 52.666 87.7142 51.876C88.8285 51.086 88.9389 51.1774 90.2882 50.985C91.6376 50.7926 93.3411 50.7489 94.0502 50.985C96.1359 51.3786 97.0019 51.5514 98.2514 51.9326C98.5521 52.0243 98.8614 52.0872 99.1747 52.1133L102.721 52.4089C103.94 52.5104 105.142 52.0702 106.007 51.2054L107.092 50.1201C107.689 49.5229 108.091 48.758 108.242 47.9272L108.994 43.8123C109.461 41.2589 107.499 38.907 104.904 38.907H97.9135C97.6486 38.907 97.3819 38.9328 97.1218 38.9831C88.9954 40.5552 84.0745 41.5326 76.5272 42.9753V42.9753C74.989 43.2693 71.9956 44.0824 70.5259 44.6231C69.9776 44.8249 69.3877 45.0372 68.7889 45.243C67.1549 45.8045 65.4544 46.3171 64.3502 46.431C63.2109 46.5486 62.1373 46.525 61.1822 46.4899C60.2655 46.4561 59.458 46.4117 58.8062 46.4712M32.488 57.321C32.488 57.123 30.2942 55.7538 29.9972 55.638C29.7002 55.5223 29.3219 55.6496 29.1062 55.836C28.2807 56.7772 28.4132 57.123 28.1073 57.618M54.9773 47.817C56.1979 47.3336 57.4133 46.8438 58.0142 46.629C58.2427 46.5474 58.5082 46.4984 58.8062 46.4712M54.9773 47.817L58.8062 46.4712" stroke="#03408F" stroke-width="0.594" stroke-linecap="round"/>
<path d="M30.0959 48.0146C30.217 48.1704 30.3502 48.3261 30.4919 48.4787M35.9369 49.2026C35.9989 49.3906 37.5209 53.8556 38.5109 56.3306C39.5009 58.8056 37.3229 58.4096 36.5309 57.8156C35.7389 57.2216 35.0459 55.5386 35.0459 55.5386C35.0459 55.5386 34.726 54.6476 33.8579 52.7666C33.2639 51.4796 33.2639 51.3806 32.4719 50.3906C31.8779 49.8956 31.1605 49.199 30.4919 48.4787M30.4919 48.4787C31.3089 49.555 31.5222 50.0254 31.5809 50.6876C32.2654 53.7033 32.0486 53.5941 31.8779 55.0436M26.7299 49.0046C27.6209 49.4996 28.6455 49.706 28.9079 50.6876L29.1059 51.5786C29.4029 52.8656 29.4029 52.6676 29.4029 53.2616M28.5119 58.0136C28.7099 59.1026 30.0959 60.3896 30.8879 58.9046M25.8389 50.3906C26.4329 50.6876 26.2349 50.3906 26.7299 50.8856C27.2249 51.3806 27.2249 52.1726 27.8189 52.5686" stroke="#03408F" stroke-width="0.594" stroke-linecap="round"/>
</g>
</svg>
