<svg width="33" height="42" viewBox="0 0 33 42" fill="none" xmlns="http://www.w3.org/2000/svg">
<path d="M1.53027 23.6548L7.37098 16.5752H25.7781L31.0878 23.6548L16.0435 40.469L1.53027 23.6548Z" fill="white" stroke="#03408F" stroke-width="0.353982"/>
<path d="M1 23.7443L16.1684 41M1 23.7443L7.26794 16.1351M1 23.7443H9.99166M16.1684 41L31.295 23.7443M16.1684 41L9.99166 23.7443M16.1684 41L22.7801 23.7443M31.295 23.7443L25.6957 16.1351M31.295 23.7443H22.7801M25.6957 16.1351H16.4818M25.6957 16.1351L22.7801 23.7443M7.26794 16.1351L9.99166 23.7443M7.26794 16.1351H16.4818M9.99166 23.7443L16.4818 16.1351M9.99166 23.7443H22.7801M16.4818 16.1351L22.7801 23.7443M1 5.94802L5.8472 10.9792M16.4818 1V8.31809M31.7965 5.94802L26.991 10.9792" stroke="#03408F" stroke-width="2" stroke-linecap="round" stroke-linejoin="round"/>
</svg>
